<?xml version="1.0" encoding="utf-8"?>
<!-- Generator: Adobe Illustrator 18.1.1, SVG Export Plug-In . SVG Version: 6.00 Build 0)  -->
<svg version="1.1" id="Layer_1" xmlns="http://www.w3.org/2000/svg" xmlns:xlink="http://www.w3.org/1999/xlink" x="0px" y="0px"
	 viewBox="0 0 21.6 20" enable-background="new 0 0 21.6 20" xml:space="preserve">
<circle fill="#B3B3B3" cx="10.7" cy="10" r="5.1"/>
<path fill="#B3B3B3" d="M20.7,11.3c-3.6-4.1-7.3-6-10.8-5.7C4.6,6,1.2,11.1,1.2,11.2l-1-0.7c0.2-0.2,3.8-5.7,9.6-6.2
	c4-0.3,8,1.7,11.9,6.1L20.7,11.3z"/>
<g>
	
		<rect x="-0.5" y="8.9" transform="matrix(-0.6087 0.7934 -0.7934 -0.6087 26.2656 7.0071)" fill="#B3B3B3" width="23.8" height="2.2"/>
	<path fill="#FFFFFF" d="M17.8,0.4L19,1.3L5,19.6l-1.1-0.9L17.8,0.4 M17.7-0.6L17.3,0l-14,18.3l-0.4,0.6l0.6,0.4l1.1,0.9l0.6,0.4
		L5.5,20l14-18.3L20,1.1l-0.6-0.4l-1.1-0.9L17.7-0.6L17.7-0.6z"/>
</g>
</svg>
