<?xml version="1.0" encoding="utf-8"?>
<!-- Generator: Adobe Illustrator 18.1.1, SVG Export Plug-In . SVG Version: 6.00 Build 0)  -->
<svg version="1.1" id="Layer_1" xmlns="http://www.w3.org/2000/svg" xmlns:xlink="http://www.w3.org/1999/xlink" x="0px" y="0px"
	 viewBox="0 0 21.6 20" enable-background="new 0 0 21.6 20" xml:space="preserve">
<g>
	<path fill="#B3B3B3" d="M20.7,11.4c-3.6-4.1-7.3-6-10.8-5.7c-5.3,0.4-8.7,5.6-8.7,5.6l-1-0.7c0.2-0.2,3.8-5.7,9.6-6.2
		c4-0.3,8,1.7,11.9,6.1L20.7,11.4z"/>
	<path fill="#B3B3B3" d="M10.7,5c-2.8,0-5.1,2.3-5.1,5.1s2.3,5.1,5.1,5.1c2.8,0,5.1-2.3,5.1-5.1S13.5,5,10.7,5z M13,10.1
		c-0.8,0-1.4-0.7-1.4-1.5c0-0.8,0.6-1.5,1.4-1.5s1.4,0.7,1.4,1.5C14.4,9.5,13.8,10.1,13,10.1z"/>
</g>
</svg>
