<?xml version="1.0" encoding="UTF-8"?><!DOCTYPE svg PUBLIC "-//W3C//DTD SVG 1.1//EN" "http://www.w3.org/Graphics/SVG/1.1/DTD/svg11.dtd"><svg xmlns="http://www.w3.org/2000/svg" xmlns:xlink="http://www.w3.org/1999/xlink"><defs/><symbol id="add" viewBox="55 0 40 40">
  <rect x="57.9" y="17.9" width="33.3" height="4.1"/>
  <rect x="72.5" y="3.3" width="4.1" height="33.3"/>
</symbol><symbol id="checkbox-checked" viewBox="0 0 20 20">
	<linearGradient id="checkbox-checked-gradient" gradientUnits="userSpaceOnUse" x1="10" y1="0.5" x2="10" y2="19.5">
		<stop offset="0" style="stop-color:#FFFFFF"/>
		<stop offset="1" style="stop-color:#F2F2F2"/>
	</linearGradient>
	<rect x="0.5" y="0.5" fill="url(#checkbox-checked-gradient)" width="19" height="19"/>
  <path fill="#CCCBCB" d="M19,1v18H1V1H19 M20,0H0v20h20V0L20,0z"/>
	<rect x="5.9" y="8.8" transform="matrix(0.7071 -0.7071 0.7071 0.7071 -6.3011 8.288)" fill="#009EEF" width="2" height="5.9"/>
	<polygon fill="#009EEF" points="8.5,14.5 7.1,13.1 15,5.4 16.4,6.9 	"/>
</symbol><symbol id="checkbox-disabled-checked" viewBox="0 0 20 20">
  <rect x="0" opacity="0.8" fill="#F3F3F3" width="20" height="20"/>
  <g opacity="0.4">
    <rect x="5.6" y="8.7" transform="matrix(0.7071 -0.7071 0.7071 0.7071 -6.2811 8.0795)" fill="#888888" width="2" height="5.9"/>
    <polygon fill="#888888" points="8.3,14.4 6.9,13 14.8,5.3 16.2,6.7 	"/>
  </g>
</symbol><symbol id="checkbox-disabled" viewBox="0 0 20 20">
  <rect x="0" y="0" opacity="0.8" fill="#F3F3F3" width="20" height="20"/>
</symbol><symbol id="checkbox-error" viewBox="0 0 20 20">
	<linearGradient id="checkbox-error-gradient" gradientUnits="userSpaceOnUse" x1="10" y1="0.5" x2="10" y2="19.5">
		<stop offset="0" style="stop-color:#FFFFFF"/>
		<stop offset="1" style="stop-color:#F2F2F2"/>
	</linearGradient>
	<rect x="0.5" y="0.5" fill="url(#checkbox-error-gradient)" width="19" height="19"/>
	<path fill="#D1625E" d="M19,1v18H1V1H19 M20,0H0v20h20V0L20,0z"/>
</symbol><symbol id="checkbox-hover-checked" viewBox="0 0 20 20">
	<linearGradient id="checkbox-hover-checked-gradient" gradientUnits="userSpaceOnUse" x1="10" y1="0.5" x2="10" y2="19.5">
		<stop offset="0" style="stop-color:#FFFFFF"/>
		<stop offset="1" style="stop-color:#F2F2F2"/>
	</linearGradient>
	<rect x="0.5" y="0.5" fill="url(#checkbox-hover-checked-gradient)" width="19" height="19"/>
  <path fill="#CCCCCC" d="M19,1v18H1V1H19 M20,0H0v20h20V0L20,0z"/>
  <g opacity="8.000000e-002">
    <rect x="0" y="0" fill="#009EEF" width="20" height="20"/>
  </g>
	<rect x="5.9" y="8.8" transform="matrix(0.7071 -0.7071 0.7071 0.7071 -6.3011 8.288)" fill="#009EEF" width="2" height="5.9"/>
	<polygon fill="#009EEF" points="8.5,14.5 7.1,13.1 15,5.4 16.4,6.9 	"/>
</symbol><symbol id="checkbox-hover" viewBox="0 0 20 20">
	<linearGradient id="checkbox-hover-gradient" gradientUnits="userSpaceOnUse" x1="10" y1="0.5" x2="10" y2="19.5">
		<stop offset="0" style="stop-color:#FFFFFF"/>
		<stop offset="1" style="stop-color:#F2F2F2"/>
	</linearGradient>
	<rect x="0.5" y="0.5" fill="url(#checkbox-hover-gradient)" width="19" height="19"/>
  <path fill="#CCCCCC" d="M19,1v18H1V1H19 M20,0H0v20h20V0L20,0z"/>
  <g opacity="0.08">
    <rect y="0" fill="#009EEF" width="20" height="20"/>
  </g>
</symbol><symbol id="checkbox" viewBox="0 0 20 20">
	<linearGradient id="checkbox-gradient" gradientUnits="userSpaceOnUse" x1="10" y1="0.5" x2="10" y2="19.5">
		<stop offset="0" style="stop-color:#FFFFFF"/>
		<stop offset="1" style="stop-color:#F2F2F2"/>
	</linearGradient>
	<rect x="0.5" y="0.5" fill="url(#checkbox-gradient)" width="19" height="19"/>
  <path fill="#CCCBCB" d="M19,1v18H1V1H19 M20,0H0v20h20V0L20,0z"/>
</symbol><symbol id="chevron-double" viewBox="0 0 48 48">
  <path class="base" d="M 24.83,14.83 22,12 10,24 22,36 24.83,33.17 15.66,24 Z"/>
  <path class="base" d="m 38.797605,14.855422 -2.83,-2.83 -12,12 12,12 2.83,-2.83 -9.17,-9.17 z"/>
</symbol><symbol id="chevron" viewBox="0 0 48 48">
  <path class="base" d="M30.83 14.83L28 12 16 24l12 12 2.83-2.83L21.66 24z"/>
</symbol><symbol id="close" viewBox="0 0 48 48">
	<path class="base" d="M38 12.83L35.17 10 24 21.17 12.83 10 10 12.83 21.17 24 10 35.17 12.83 38 24 26.83 35.17 38 38 35.17 26.83 24z"/>
</symbol><symbol id="email" viewBox="0 0 50 50">
<g>
	<polyline fill="#FFFFFF" stroke="#737373" stroke-width="2" stroke-miterlimit="10" points="727.4,252.7 727.4,240.6 750.1,240.6 
		750.1,252.5 	"/>
	<g>
		<rect x="719.4" y="253" fill="#FFFFFF" width="38" height="20.5"/>
		<path fill="#737373" d="M756.4,254v18.5h-36V254H756.4 M758.4,252h-40v22.5h40V252L758.4,252z"/>
	</g>
	<polygon fill="#FFFFFF" stroke="#737373" stroke-width="2" stroke-miterlimit="10" points="750.1,273.8 750.1,265 727.4,265 
		727.4,279.8 743.8,279.9 	"/>
	<polygon fill="#737373" points="744.3,273.8 750.7,273.8 744.1,280.6 	"/>
	<ellipse fill="#3B99D4" cx="752.3" cy="258.3" rx="1.6" ry="1.6"/>
</g>
<g>
	<g>
		<rect x="3.5" y="10.5" fill="#FFFFFF" width="43" height="29"/>
		<g>
			<path fill="#737373" d="M45.5,11.5v27h-41v-27H45.5 M47.5,9.5h-45v31h45V9.5L47.5,9.5z"/>
		</g>
	</g>
	<polyline fill="none" stroke="#737373" stroke-width="2" stroke-miterlimit="10" points="2.8,14.1 24.7,26.2 46.6,13.6 	"/>
</g>
</symbol><symbol id="error" viewBox="0 0 80 80">
	<polygon fill="#ED5959" points="24.3,80 0,55.7 0,22.4 24.3,0 57.6,0 80,22.4 80,55.7 57.6,80"/>
	<circle fill="#FFFFFF" cx="40.1" cy="58.1" r="4.5"/>
	<path fill="#FFFFFF" d="M45.3,22.5c0-3.6-2.4-6.6-5.5-6.6s-5.3,3.4-5.3,7l3.3,24c0,1.3,0.9,2.4,2,2.4s2-1.1,2-2.4L45.3,22.5z"/>
</symbol><symbol id="expand-collapse" viewBox="0 0 15 15">
<polygon fill="#676767" points="7.5,11.4 1.1,5 2.5,3.6 7.5,8.6 12.5,3.6 13.9,5 "/>
</symbol><symbol id="export" viewBox="0 5 40 40">
<g id="Layer_4">
	<path fill="#009EEF" d="M32.1,35.5l-1,1.1v4H6.6V9.5h17.8l0.1,7.7h6.6v9.9l1,0.9l0-11.1L25,8.3H5.5v33.3h26.7L32.1,35.5z"/>
	<polygon fill="#FFFFFF" points="32.1,28 32.1,35.5 32.1,35.5 32.1,28 	"/>
	<g>
		
			<rect x="29.1" y="23.7" transform="matrix(-0.7071 0.7071 -0.7071 -0.7071 71.8094 27.8896)" fill="#009EEF" width="2" height="10.2"/>
		
			<rect x="29.2" y="29.5" transform="matrix(-0.7071 -0.7071 0.7071 -0.7071 27.0647 80.4883)" fill="#009EEF" width="2" height="10.2"/>
		<rect x="18.7" y="30.7" fill="#009EEF" width="13.5" height="2"/>
	</g>
</g>
<g id="Layer_1_1_">
</g>
</symbol><symbol id="info" viewBox="0 0 80 80">
	<path fill="#BABCBE" d="M40,9.6c16.7,0,30.2,13.6,30.2,30.2S56.7,70.1,40,70.1S9.8,56.5,9.8,39.8S23.3,9.6,40,9.6 M40,4.8
		c-19.3,0-35,15.7-35,35s15.7,35,35,35s35-15.7,35-35S59.3,4.8,40,4.8L40,4.8z"/>
	<circle fill="#7C807F" cx="40" cy="24.5" r="6"/>
	<path fill="#7C807F" d="M40.6,61.5h-1.2c-1.7,0-3-1.3-3-3V37.1c0-1.6,1.3-3,3-3h1.2c1.6,0,3,1.3,3,3v21.4
		C43.6,60.2,42.2,61.5,40.6,61.5z"/>
</symbol><symbol id="loading-ring" viewBox="0 0 100 100" preserveAspectRatio="xMidYMid"><rect x="0" y="0" width="100" height="100" fill="none" class="bk"/><circle cx="50" cy="50" r="40" stroke="none" fill="none" stroke-width="10" stroke-linecap="round"/><circle cx="50" cy="50" r="40" stroke="#000000" fill="none" stroke-width="6" stroke-linecap="round"><animate attributeName="stroke-dashoffset" dur="2s" repeatCount="indefinite" from="0" to="502"/><animate attributeName="stroke-dasharray" dur="2s" repeatCount="indefinite" values="150.6 100.4;1 250;150.6 100.4"/></circle></symbol><symbol id="loading-ripple" viewBox="0 0 100 100">
	<rect x="0" y="0" width="100" height="100" fill="none" class="bk"/>
	<g>
		<animate attributeName="opacity" dur="2s" repeatCount="indefinite" begin="0s" keyTimes="0;0.33;1" values="1;1;0"/>
		<circle cx="50" cy="50" r="40" stroke="#009eef" fill="none" stroke-width="6" stroke-linecap="round">
			<animate attributeName="r" dur="2s" repeatCount="indefinite" begin="0s" keyTimes="0;0.33;1" values="0;22;44"/>
		</circle>
	</g>
	<g>
		<animate attributeName="opacity" dur="2s" repeatCount="indefinite" begin="1s" keyTimes="0;0.33;1" values="1;1;0"/>
		<circle cx="50" cy="50" r="40" stroke="#009eef" fill="none" stroke-width="6" stroke-linecap="round">
			<animate attributeName="r" dur="2s" repeatCount="indefinite" begin="1s" keyTimes="0;0.33;1" values="0;22;44"/>
		</circle>
	</g>
</symbol><symbol id="menu" viewBox="0 0 48 48">
	<path class="base" d="M6 36h36v-4H6v4zm0-10h36v-4H6v4zm0-14v4h36v-4H6z"/>
</symbol><symbol id="more" viewBox="0 0 35 35">
  <circle fill="#009EEF" cx="4.5" cy="17.5" r="4"/>
  <circle fill="#009EEF" cx="17.5" cy="17.5" r="4"/>
  <circle fill="#009EEF" cx="30.5" cy="17.5" r="4"/>
</symbol><symbol id="open-tabs" viewBox="0 0 30 30">
  <g class="frost-svg-link">
    <path d="M23,14v11H5V7h11V5H6C4.9,5,3,6.9,3,8v16c0,1.1,1.9,3,3,3h16c1.1,0,3-1.9,3-3V14H23z"/>
	<polygon points="27,3 27,10 25,10 25,6.5 17.3,14.2 15.9,12.8 23.7,5 20,5 20,3 "/>
  </g>
</symbol><symbol id="print" viewBox="0 0 50 50">
<g>
	<polyline fill="#FFFFFF" stroke="#7B7F7F" stroke-width="2" stroke-miterlimit="10" points="14.1,17.1 14.1,5 36.8,5 36.8,16.9 	
		"/>
	<g>
		<rect x="6" y="17.4" fill="#FFFFFF" width="38" height="20.5"/>
		<path fill="#7B7F7F" d="M43,18.4v18.5H7V18.4H43 M45,16.4H5v22.5h40V16.4L45,16.4z"/>
	</g>
	<polygon fill="#FFFFFF" stroke="#7B7F7F" stroke-width="2" stroke-miterlimit="10" points="36.8,38.2 36.8,29.4 14.1,29.4 
		14.1,44.2 30.4,44.3 	"/>
	<polygon fill="#7B7F7F" points="30.9,38.3 37.3,38.3 30.8,45 	"/>
	<ellipse fill="#009EEF" cx="39" cy="22.8" rx="1.6" ry="1.6"/>
</g>
</symbol><symbol id="round-add" viewBox="0 0 30 30">
<rect x="14.5" y="7.5" fill="#009EEF" width="1" height="15"/>
<rect x="7.5" y="14.5" fill="#009EEF" width="15" height="1"/>
<path fill="#009EEF" d="M15,2.5c6.9,0,12.5,5.6,12.5,12.5S21.9,27.5,15,27.5S2.5,21.9,2.5,15S8.1,2.5,15,2.5 M15,1.5
	C7.5,1.5,1.5,7.5,1.5,15s6,13.5,13.5,13.5s13.5-6,13.5-13.5S22.5,1.5,15,1.5L15,1.5z"/>
</symbol><symbol id="round-close" viewBox="0 0 30 30">
	<circle fill="#FFFFFF" cx="15" cy="15" r="15"/>
	<g class="frost-svg-round-close">
		<rect x="13.5" y="7" transform="matrix(0.7071 0.7071 -0.7071 0.7071 15 -6.2132)" width="3" height="15.9"/>
		<rect x="7" y="13.5" transform="matrix(0.7071 0.7071 -0.7071 0.7071 15 -6.2132)" width="15.9" height="3"/>
		<path d="M15,2c7.2,0,13,5.8,13,13s-5.8,13-13,13S2,22.2,2,15S7.8,2,15,2 M15,0C6.7,0,0,6.7,0,15s6.7,15,15,15
		s15-6.7,15-15S23.3,0,15,0L15,0z"/>
	</g>
</symbol><symbol id="round-remove" viewBox="0 15 30 30">
<rect x="7.5" y="29.5" fill="#E32C2C" width="15" height="1"/>
<g>
	<path fill="#E32C2C" d="M15,18.5c6.3,0,11.5,5.2,11.5,11.5S21.3,41.5,15,41.5S3.5,36.3,3.5,30S8.7,18.5,15,18.5 M15,17.5
		C8.1,17.5,2.5,23.1,2.5,30S8.1,42.5,15,42.5S27.5,36.9,27.5,30S21.9,17.5,15,17.5L15,17.5z"/>
</g>
</symbol><symbol id="view-large" viewBox="0 0 10 10">
	<g class="view-size-svg">
		<rect x="0" y="0" width="10" height="4.5"/>
		<rect x="0" y="5.5" width="10" height="4.5"/>
	</g>
</symbol><symbol id="view-medium" viewBox="0 0 10 10">
	<g class="view-size-svg">
		<rect x="0" y="0" width="10" height="1.75"/>
		<rect x="0" y="2.75" width="10" height="1.75"/>
		<rect x="0" y="5.5" width="10" height="1.75"/>
		<rect x="0" y="8.25" width="10" height="1.75"/>
	</g>
</symbol><symbol id="view-small" viewBox="0 0 10 10">
  <g class="view-size-svg">
    <rect x="0" y="0" width="10" height="1"/>
    <rect x="0" y="2.25" width="10" height="1"/>
    <rect x="0" y="4.5" width="10" height="1"/>
    <rect x="0" y="6.75" width="10" height="1"/>
    <rect x="0" y="9" width="10" height="1"/>
  </g>
</symbol><symbol id="warning" viewBox="0 0 80 80">
	<path fill="none" stroke="#BABCBE" stroke-width="4" stroke-miterlimit="10" d="M435.1,599l30-45.1c1.9-2.9,6.2-2.9,8.2,0
		l30.2,45.1c2.2,3.3-0.2,7.6-4.1,7.6h-60.2C435.3,606.6,432.9,602.3,435.1,599z"/>
	<circle fill="#7C807F" cx="469.1" cy="596" r="3.3"/>
	<path fill="#7C807F" d="M473,569.8c0-2.7-1.8-4.8-4-4.8c-2.2,0-3.9,2.5-3.9,5.2l2.4,17.6c0,1,0.6,1.7,1.4,1.7
		c0.8,0,1.4-0.8,1.4-1.7L473,569.8z"/>
	<path fill="none" stroke="#BABCBE" stroke-width="4" stroke-miterlimit="10" d="M6.1,60l30-45.1c1.9-2.9,6.2-2.9,8.2,0L74.4,60
		c2.2,3.3-0.2,7.6-4.1,7.6H10.2C6.3,67.6,3.9,63.3,6.1,60z"/>
	<circle fill="#7C807F" cx="40.1" cy="57" r="3.3"/>
	<path fill="#7C807F" d="M44,30.8c0-2.7-1.8-4.8-4-4.8c-2.2,0-3.9,2.5-3.9,5.2l2.4,17.6c0,1,0.6,1.7,1.4,1.7s1.4-0.8,1.4-1.7
		L44,30.8z"/>
</symbol></svg>