<?xml version="1.0" encoding="UTF-8"?><!DOCTYPE svg PUBLIC "-//W3C//DTD SVG 1.1//EN" "http://www.w3.org/Graphics/SVG/1.1/DTD/svg11.dtd"><svg xmlns="http://www.w3.org/2000/svg" xmlns:xlink="http://www.w3.org/1999/xlink"><defs/><symbol id="error" viewBox="0 0 30 30">
<g id="Layer_1" style="display:none;">
	<g style="display:inline;">
		<path style="fill:#009999;" d="M15,29.5C7.005,29.5,0.5,22.995,0.5,15S7.005,0.5,15,0.5S29.5,7.005,29.5,15S22.995,29.5,15,29.5z"/>
		<path style="fill:#FFFFFF;" d="M15,1c7.72,0,14,6.28,14,14s-6.28,14-14,14S1,22.72,1,15S7.28,1,15,1 M15,0C6.716,0,0,6.716,0,15
			s6.716,15,15,15s15-6.716,15-15S23.284,0,15,0L15,0z"/>
	</g>
	<g style="display:inline;">
		<circle style="fill:#FFFFFF;" cx="15.285" cy="20.259" r="1.253"/>
		<path style="fill:#FFFFFF;" d="M16.766,10.31c0-1.025-0.684-1.823-1.519-1.823c-0.835,0-1.481,0.949-1.481,1.975l0.911,6.684
			c0,0.38,0.228,0.646,0.532,0.646c0.304,0,0.532-0.304,0.532-0.646L16.766,10.31z"/>
	</g>
</g>
<g id="red_notification">
	<g>
		<g>
			<polygon style="fill:#E52C2C;" points="9.283,29.155 0.595,20.468 0.595,8.591 9.269,0.595 21.174,0.595 29.155,8.577 
				29.155,20.481 21.159,29.155 			"/>
			<path style="fill:#FFFFFF;" d="M20.927,1.19l7.633,7.633v11.426l-7.662,8.311H9.529L1.19,20.221V8.852L9.501,1.19H20.927
				 M21.42,0H9.037L0,8.33v12.383l9.037,9.037H21.42l8.33-9.037V8.33L21.42,0L21.42,0z"/>
		</g>
		<g>
			<circle style="fill:#FFFFFF;" cx="14.912" cy="21.606" r="1.673"/>
			<path style="fill:#FFFFFF;" d="M16.846,8.367c0-1.339-0.893-2.454-2.045-2.454S12.83,7.177,12.83,8.516l1.227,8.925
				c0,0.483,0.335,0.892,0.744,0.892s0.744-0.409,0.744-0.892L16.846,8.367z"/>
		</g>
	</g>
</g>
<g id="yellow" style="display:none;">
	<g style="display:inline;">
		<g>
			<path style="fill:#E2DC00;" d="M2,26c-0.333,0-0.582,0.017-0.666-0.136c-0.085-0.151-0.031-0.357,0.144-0.64L14.372,4.442
				C14.555,4.147,14.784,3.991,15,3.991s0.446,0.176,0.629,0.471l12.893,20.812c0.175,0.282,0.229,0.436,0.145,0.588
				C28.582,26.015,28.333,26,28,26H2z"/>
			<path style="fill:#FFFFFF;" d="M15,4.508c0.034,0.018,0.113,0.079,0.203,0.224l12.893,20.808c0.039,0.064,0.065,0.26,0.082,0.302
				C28.134,25.851,28.075,26,28,26H2c-0.075,0-0.134-0.149-0.178-0.157c0.017-0.042,0.042-0.167,0.082-0.231L14.797,4.768
				C14.887,4.623,14.966,4.526,15,4.508 M15,3.505c-0.382,0-0.764,0.234-1.053,0.701L1.053,25.157C0.474,26.092,0.9,27,2,27h26
				c1.1,0,1.526-0.908,0.947-1.843L16.053,4.277C15.764,3.81,15.382,3.505,15,3.505L15,3.505z"/>
		</g>
		<g>
			<circle style="fill:#A59D00;" cx="15.019" cy="22.023" r="1.253"/>
			<path style="fill:#A59D00;" d="M16.5,12.073c0-1.025-0.684-1.823-1.519-1.823S13.5,11.2,13.5,12.225l0.911,6.684
				c0,0.38,0.228,0.646,0.532,0.646c0.304,0,0.532-0.304,0.532-0.646L16.5,12.073z"/>
		</g>
	</g>
</g>
</symbol><symbol id="info" viewBox="0 0 30 30">
<g>
	<path style="fill:#009999;" d="M15,29.5C7.005,29.5,0.5,22.995,0.5,15S7.005,0.5,15,0.5S29.5,7.005,29.5,15S22.995,29.5,15,29.5z"/>
	<path style="fill:#FFFFFF;" d="M15,1c7.72,0,14,6.28,14,14s-6.28,14-14,14S1,22.72,1,15S7.28,1,15,1 M15,0C6.716,0,0,6.716,0,15
		s6.716,15,15,15s15-6.716,15-15S23.284,0,15,0L15,0z"/>
</g>
<g>
	<circle style="fill:#FFFFFF;" cx="15.285" cy="20.259" r="1.253"/>
	<path style="fill:#FFFFFF;" d="M16.766,10.31c0-1.025-0.684-1.823-1.519-1.823c-0.835,0-1.481,0.949-1.481,1.975l0.911,6.684
		c0,0.38,0.228,0.646,0.532,0.646c0.304,0,0.532-0.304,0.532-0.646L16.766,10.31z"/>
</g>
</symbol><symbol id="warning" viewBox="0 0 30 30">
<g id="Layer_1" style="display:none;">
	<g style="display:inline;">
		<path style="fill:#009999;" d="M15,29.5C7.005,29.5,0.5,22.995,0.5,15S7.005,0.5,15,0.5S29.5,7.005,29.5,15S22.995,29.5,15,29.5z"/>
		<path style="fill:#FFFFFF;" d="M15,1c7.72,0,14,6.28,14,14s-6.28,14-14,14S1,22.72,1,15S7.28,1,15,1 M15,0C6.716,0,0,6.716,0,15
			s6.716,15,15,15s15-6.716,15-15S23.284,0,15,0L15,0z"/>
	</g>
	<g style="display:inline;">
		<circle style="fill:#FFFFFF;" cx="15.285" cy="20.259" r="1.253"/>
		<path style="fill:#FFFFFF;" d="M16.766,10.31c0-1.025-0.684-1.823-1.519-1.823c-0.835,0-1.481,0.949-1.481,1.975l0.911,6.684
			c0,0.38,0.228,0.646,0.532,0.646c0.304,0,0.532-0.304,0.532-0.646L16.766,10.31z"/>
	</g>
</g>
<g id="red_notification" style="display:none;">
	<g style="display:inline;">
		<g>
			<polygon style="fill:#E52C2C;" points="9.283,29.155 0.595,20.468 0.595,8.591 9.269,0.595 21.174,0.595 29.155,8.577 
				29.155,20.481 21.159,29.155 			"/>
			<path style="fill:#FFFFFF;" d="M20.927,1.19l7.633,7.633v11.426l-7.662,8.311H9.529L1.19,20.221V8.852L9.501,1.19H20.927
				 M21.42,0H9.037L0,8.33v12.383l9.037,9.037H21.42l8.33-9.037V8.33L21.42,0L21.42,0z"/>
		</g>
		<g>
			<circle style="fill:#FFFFFF;" cx="14.912" cy="21.606" r="1.673"/>
			<path style="fill:#FFFFFF;" d="M16.846,8.367c0-1.339-0.893-2.454-2.045-2.454S12.83,7.177,12.83,8.516l1.227,8.925
				c0,0.483,0.335,0.892,0.744,0.892s0.744-0.409,0.744-0.892L16.846,8.367z"/>
		</g>
	</g>
</g>
<g id="yellow">
	<g>
		<g>
			<path style="fill:#E2DC00;" d="M2,26c-0.333,0-0.582,0.017-0.666-0.136c-0.085-0.151-0.031-0.357,0.144-0.64L14.372,4.442
				C14.555,4.147,14.784,3.991,15,3.991s0.446,0.176,0.629,0.471l12.893,20.812c0.175,0.282,0.229,0.436,0.145,0.588
				C28.582,26.015,28.333,26,28,26H2z"/>
			<path style="fill:#FFFFFF;" d="M15,4.508c0.034,0.018,0.113,0.079,0.203,0.224l12.893,20.808c0.039,0.064,0.065,0.26,0.082,0.302
				C28.134,25.851,28.075,26,28,26H2c-0.075,0-0.134-0.149-0.178-0.157c0.017-0.042,0.042-0.167,0.082-0.231L14.797,4.768
				C14.887,4.623,14.966,4.526,15,4.508 M15,3.505c-0.382,0-0.764,0.234-1.053,0.701L1.053,25.157C0.474,26.092,0.9,27,2,27h26
				c1.1,0,1.526-0.908,0.947-1.843L16.053,4.277C15.764,3.81,15.382,3.505,15,3.505L15,3.505z"/>
		</g>
		<g>
			<circle style="fill:#A59D00;" cx="15.019" cy="22.023" r="1.253"/>
			<path style="fill:#A59D00;" d="M16.5,12.073c0-1.025-0.684-1.823-1.519-1.823S13.5,11.2,13.5,12.225l0.911,6.684
				c0,0.38,0.228,0.646,0.532,0.646c0.304,0,0.532-0.304,0.532-0.646L16.5,12.073z"/>
		</g>
	</g>
</g>
</symbol></svg>