<svg xmlns='http://www.w3.org/2000/svg' style='display: none'>
<symbol id="company-strip" viewBox="0 0 5 375">
  <g>
    <rect fill="#7B7F7F" width="4" height="260"/>
    <rect fill="#7B7F7F" width="4" height="260"/>
  </g>
</symbol>
<symbol id="company" viewBox="0 0 730 200">
<g>
	<text transform="matrix(1 0 0 1 -1 77.1748)"><tspan x="0" y="0" fill="#919395" font-family="&apos;Roboto-Medium&apos;" font-size="60">Company</tspan><tspan x="212.7" y="0" font-family="&apos;Roboto-Medium&apos;" font-size="60"> </tspan></text>
</g>
<g>
	<text transform="matrix(1 0 0 1 98.75 106.3463)" fill="#083245" font-family="&apos;Roboto-Regular&apos;" font-size="20">a division of Ipsum</text>
</g>
</symbol>
<symbol id="user" viewBox="0 0 35 35">
	<g>
		<path style="fill:#E8E8E8;" d="M17.462,6.65H17.4l-0.005,0c-3.689,0.038-6.658,3.058-6.658,6.767c0,0.562,0.067,1.107,0.196,1.628
			l0.472-0.116l-0.206-0.441c-0.218,0.102-0.422,0.24-0.598,0.415l0,0c-0.362,0.361-0.596,0.865-0.596,1.424l0.004,0.065
			l0.176,1.307l0.482-0.065h-0.487c0,0.519,0.158,1.015,0.479,1.397c0.318,0.382,0.815,0.628,1.374,0.624h0.068v-0.487l-0.481,0.076
			c0.145,0.908,0.33,1.859,0.693,2.715c0.361,0.852,0.922,1.629,1.808,2.084l0.222-0.433l-0.467-0.135
			c0,0.001-0.139,0.48-0.278,0.977c-0.07,0.249-0.139,0.502-0.193,0.704c-0.027,0.101-0.049,0.19-0.066,0.262l-0.022,0.1
			l-0.015,0.136l0.004,0.061l0.483-0.058l-0.029-0.486c-0.192,0.011-0.313,0.019-0.386,0.024l-0.079,0.005l-0.021,0.002
			l-0.013,0.001l-0.018,0.002l-0.034,0.006l-0.063,0.017l-0.101,0.049l-0.114,0.101c-0.046,0.055-0.111,0.164-0.111,0.31
			c0,0.192,0.112,0.324,0.172,0.371c0.122,0.093,0.161,0.086,0.193,0.1c0.065,0.014,0.081,0.014,0.091,0.014
			c0.004,0,0.007,0,0.012,0.001l0.02,0l0.048-0.002l0.066-0.004l0.034-0.003l0.026-0.003l0.039-0.007l0.068-0.02l0.107-0.055
			l0.113-0.107c0.045-0.057,0.1-0.162,0.1-0.295c0.001-0.101-0.035-0.198-0.075-0.26c-0.083-0.122-0.152-0.151-0.192-0.174
			l-0.125-0.043l-0.08-0.009l-0.021,0l-0.015,0c-5.073,0.168-8.776,3.657-8.817,3.684l0.002-0.002
			c-1.649,1.524-2.276,3.701-2.507,5.55l0.483,0.06l0.129-0.469c-0.995-0.273-1.736-1.189-1.735-2.27V3.328
			c0-0.648,0.263-1.234,0.691-1.663c0.428-0.428,1.013-0.692,1.658-0.692h14.178h14.178c0.645,0,1.23,0.264,1.658,0.692
			c0.427,0.429,0.691,1.016,0.691,1.663v28.417c0.002,1.081-0.739,1.997-1.735,2.27l0.129,0.469l0.483-0.06
			c-0.231-1.849-0.858-4.026-2.507-5.55l0.002,0.002c-0.041-0.027-3.744-3.516-8.817-3.684l-0.015,0l-0.03,0.001l-0.051,0.005
			l-0.092,0.023l-0.133,0.073l-0.114,0.127c-0.04,0.062-0.074,0.158-0.073,0.257c0.002,0.181,0.093,0.296,0.143,0.345
			c0.108,0.098,0.146,0.096,0.175,0.112l0.079,0.022l0.052,0.007l0.076,0.005l0.034,0.002l0.042,0.001l0.029-0.001l0.059-0.007
			l0.105-0.032l0.139-0.091c0.061-0.052,0.156-0.185,0.155-0.356c0-0.146-0.065-0.255-0.111-0.31
			c-0.098-0.109-0.146-0.116-0.177-0.135l-0.091-0.03l-0.054-0.009l-0.049-0.004c-0.054-0.004-0.183-0.012-0.458-0.028l-0.029,0.486
			l0.483,0.056l0.003-0.059l-0.015-0.136c-0.022-0.112-0.064-0.273-0.119-0.482c-0.165-0.616-0.439-1.561-0.439-1.563l-0.467,0.135
			l0.222,0.433c0.886-0.455,1.447-1.231,1.808-2.084c0.363-0.856,0.549-1.806,0.693-2.715l-0.481-0.076v0.487h0.068
			c0.559,0.004,1.056-0.242,1.374-0.624c0.321-0.381,0.479-0.878,0.479-1.397h-0.487l0.482,0.065l0.176-1.307l0.004-0.065
			c0-0.558-0.234-1.062-0.596-1.424l0,0c-0.175-0.176-0.38-0.313-0.598-0.415l-0.206,0.441l0.472,0.116
			c0.129-0.521,0.196-1.067,0.196-1.628c0-3.709-2.968-6.729-6.658-6.767l-0.005,0h-0.062v0.973h0.062l-0.005,0
			c3.15,0.031,5.694,2.614,5.694,5.794c0,0.484-0.058,0.951-0.167,1.395c-0.056,0.225,0.056,0.459,0.266,0.557
			c0.123,0.057,0.236,0.135,0.321,0.221l0,0c0.194,0.196,0.311,0.453,0.312,0.736h0.487l-0.482-0.065l-0.176,1.307l-0.004,0.065
			c0,0.322-0.1,0.593-0.249,0.769c-0.153,0.175-0.339,0.275-0.631,0.279h-0.068c-0.239,0-0.443,0.174-0.481,0.41
			c-0.139,0.882-0.318,1.763-0.627,2.486c-0.311,0.726-0.73,1.276-1.358,1.599c-0.206,0.106-0.309,0.345-0.245,0.568
			c0,0.001,0.138,0.477,0.276,0.969c0.069,0.246,0.138,0.496,0.188,0.689c0.025,0.096,0.046,0.179,0.06,0.236l0.013,0.062
			l0.001,0.003l0.357-0.05l-0.36,0l0.003,0.05l0.357-0.05l-0.36,0h0.457l-0.454-0.053l-0.003,0.053h0.457l-0.454-0.053
			c-0.015,0.133,0.025,0.266,0.111,0.369c0.086,0.102,0.21,0.165,0.344,0.173c0.191,0.011,0.311,0.019,0.383,0.023l0.073,0.005
			l0.012,0.001l0.022-0.276l-0.027,0.275l0.005,0l0.022-0.276l-0.027,0.275l0.044-0.459l-0.061,0.457l0.016,0.002l0.044-0.459
			l-0.061,0.457l0.064-0.479l-0.097,0.473l0.033,0.006l0.064-0.479l-0.097,0.473l0.097-0.476l-0.16,0.459l0.062,0.017l0.097-0.476
			l-0.16,0.459l0.16-0.459l-0.261,0.41l0.101,0.049l0.16-0.459l-0.261,0.41l0.261-0.411l-0.375,0.31l0.114,0.101l0.261-0.411
			l-0.375,0.31l0.375-0.31l-0.487,0c0,0.146,0.065,0.255,0.111,0.31l0.375-0.31l-0.487,0h0.487l-0.332-0.356
			c-0.061,0.052-0.156,0.185-0.155,0.356h0.487l-0.332-0.356l0.332,0.356l-0.132-0.468c-0.034,0.015-0.08,0.011-0.2,0.113
			l0.332,0.356l-0.132-0.468l0.131,0.468l-0.02-0.486c-0.005,0.001-0.008,0.001-0.012,0.001c-0.011,0-0.028,0-0.099,0.017
			l0.131,0.468l-0.02-0.486l0.02,0.48v-0.48l-0.02,0l0.02,0.48v-0.48v0.424l0.017-0.424l-0.017,0v0.424l0.017-0.424l-0.05-0.003
			L21.6,25.197l-0.012,0.139l0.016-0.139l-0.004,0l-0.012,0.139l0.016-0.139l-0.05,0.434l0.076-0.431l-0.027-0.004l-0.05,0.434
			l0.076-0.431l-0.084,0.472l0.139-0.459l-0.055-0.013l-0.084,0.472l0.139-0.459l-0.141,0.465l0.236-0.424l-0.095-0.04l-0.141,0.465
			l0.236-0.424l-0.236,0.425l0.354-0.334l-0.117-0.091l-0.236,0.425l0.354-0.334l-0.354,0.334h0.486
			c-0.001-0.169-0.083-0.283-0.133-0.334l-0.354,0.334h0.486h-0.486l0.413,0.257c0.04-0.062,0.074-0.158,0.073-0.257h-0.486
			l0.413,0.257l-0.413-0.257l0.222,0.433c0.04-0.024,0.11-0.054,0.191-0.176l-0.413-0.257l0.222,0.433l-0.222-0.432l0.096,0.476
			l0.126-0.044l-0.222-0.432l0.096,0.476l-0.093-0.464l0.016,0.473l0.077-0.009l-0.093-0.464l0.016,0.473l-0.012-0.352v0.353
			l0.012,0l-0.012-0.352v0.353V25.68l-0.015,0.486c2.313,0.069,4.368,0.923,5.841,1.768c0.737,0.422,1.327,0.84,1.731,1.15
			c0.202,0.155,0.357,0.284,0.46,0.372l0.116,0.101l0.035,0.031l0.002,0.002c1.391,1.273,1.988,3.221,2.2,4.953
			c0.017,0.14,0.095,0.266,0.212,0.345c0.117,0.078,0.264,0.102,0.399,0.065c1.409-0.386,2.449-1.675,2.451-3.209V3.328
			C34.983,1.495,33.494,0.002,31.663,0H17.485H3.307c-1.831,0.002-3.32,1.495-3.322,3.328v28.417
			c0.002,1.533,1.041,2.822,2.451,3.209c0.136,0.037,0.282,0.013,0.399-0.065c0.117-0.078,0.195-0.205,0.212-0.345
			c0.212-1.732,0.809-3.68,2.2-4.953l0.002-0.002l0.035-0.031c0.378-0.347,3.813-3.271,8.148-3.392l-0.015-0.486v0.487v-0.382
			l-0.02,0.382l0.02,0.001v-0.382l-0.02,0.382l0.024-0.473l-0.072,0.468l0.048,0.005l0.024-0.473l-0.072,0.468l0.074-0.479
			l-0.163,0.457l0.09,0.023l0.074-0.479l-0.163,0.457l0.164-0.458l-0.296,0.386l0.132,0.072l0.164-0.458l-0.296,0.386l0.296-0.386
			l-0.411,0.26l0.115,0.126l0.296-0.386l-0.411,0.26l0.411-0.26h-0.486c-0.001,0.101,0.035,0.198,0.075,0.26l0.411-0.26h-0.486
			h0.486l-0.343-0.345c-0.05,0.049-0.141,0.164-0.143,0.345h0.486l-0.343-0.345l0.343,0.344l-0.168-0.456
			c-0.029,0.016-0.067,0.014-0.175,0.112l0.343,0.344l-0.168-0.456l0.167,0.452l-0.089-0.474l-0.077,0.021l0.167,0.452l-0.089-0.474
			l0.075,0.397l-0.038-0.403l-0.037,0.005l0.075,0.397l-0.038-0.403L13.326,25.2L13.3,25.202l-0.007,0l0.017,0.374v-0.374l-0.017,0
			l0.017,0.374v-0.374v0.481l0.027-0.481l-0.027-0.001v0.481l0.027-0.481l-0.028,0.485l0.081-0.479l-0.054-0.006l-0.028,0.485
			l0.081-0.479l-0.081,0.48l0.179-0.452l-0.097-0.027l-0.081,0.48l0.179-0.452l-0.179,0.452l0.314-0.371l-0.135-0.081l-0.179,0.452
			l0.314-0.371l-0.314,0.371h0.487c0-0.192-0.112-0.324-0.172-0.371l-0.314,0.371h0.487H13.31l0.375,0.31
			c0.046-0.055,0.111-0.164,0.111-0.31H13.31l0.375,0.31l-0.375-0.31l0.198,0.445c0.032-0.019,0.079-0.025,0.177-0.135l-0.375-0.31
			l0.198,0.445l-0.198-0.444l0.107,0.474l0.09-0.03l-0.198-0.444l0.107,0.474l-0.106-0.47l0.053,0.479l0.053-0.009l-0.106-0.47
			l0.053,0.479l-0.043-0.386l0.032,0.387l0.011-0.001l-0.043-0.386l0.032,0.387c0.005-0.001,0.128-0.009,0.468-0.029
			c0.133-0.008,0.259-0.071,0.344-0.174c0.086-0.103,0.126-0.237,0.11-0.37l-0.454,0.054h0.458L14.275,25.6l-0.454,0.054h0.458
			h-0.36l0.357,0.05l0.003-0.05h-0.36l0.357,0.05l0.001-0.003c0.008-0.046,0.05-0.215,0.103-0.411
			c0.16-0.599,0.434-1.544,0.435-1.546c0.065-0.223-0.038-0.462-0.245-0.568c-0.628-0.324-1.047-0.873-1.358-1.599
			c-0.309-0.723-0.488-1.604-0.627-2.486c-0.037-0.236-0.241-0.41-0.481-0.41h-0.068c-0.292-0.004-0.478-0.105-0.631-0.279
			c-0.15-0.176-0.25-0.446-0.249-0.769l-0.004-0.065l-0.176-1.307l-0.482,0.065h0.487c0-0.283,0.117-0.541,0.312-0.736l0,0
			c0.085-0.086,0.198-0.164,0.321-0.221c0.21-0.098,0.322-0.332,0.266-0.557c-0.11-0.445-0.167-0.911-0.167-1.395
			c0-3.18,2.544-5.763,5.694-5.794l-0.005,0h0.062V6.65"/>
		<polyline style="fill:#E8E8E8;" points="31.663,0.487 17.485,0.487 31.663,0.487 		"/>
	</g>
</symbol>
<symbol id="add" viewBox="55 0 40 40">
	<rect x="57.9" y="17.9" fill="#FFFFFF" width="33.3" height="4.1"/>
	<rect x="72.5" y="3.3" fill="#FFFFFF" width="4.1" height="33.3"/>
</symbol>
<symbol id="application" viewBox="0 0 45 45">
	<path class="base" d="M40.12,45h-35c-2.761,0-5-2.239-5-5V5c0-2.761,2.239-5,5-5h35c2.761,0,5,2.239,5,5v35
		C45.12,42.761,42.882,45,40.12,45z"/>
	<polygon style="fill:#272425;opacity:0.15;" points="35,9.772 45,21.721 45.086,40.586 44.917,41.375 44.75,41.75 44.417,42.542
		43.958,43.25 43.167,44 42.042,44.583 40.458,45 13.336,45 8.758,36 35.008,36 "/>
	<rect x="8.758" y="9.945" style="fill:#FFFFFF;opacity:0.4;" width="26.25" height="3.259"/>
	<rect x="8.758" y="9.795" style="fill:#F1F1F1;opacity:0.5;" width="26.25" height="26.25"/>
	<path style="fill:#F1F1F1;opacity:0.5;stroke:#F1F1F1;stroke-width:0.25;stroke-miterlimit:10;" d="M14.302,20.333h-3.604
		c-0.385,0-0.698-0.312-0.698-0.698v-3.604c0-0.385,0.312-0.698,0.698-0.698h3.604c0.385,0,0.698,0.312,0.698,0.698v3.604
		C15,20.021,14.688,20.333,14.302,20.333z"/>
	<path style="fill:#F1F1F1;opacity:0.5;stroke:#F1F1F1;stroke-width:0.25;stroke-miterlimit:10;" d="M12.5,26.92L12.5,26.92
		c-1.381,0-2.5-1.119-2.5-2.5v0c0-1.381,1.119-2.5,2.5-2.5h0c1.381,0,2.5,1.119,2.5,2.5v0C15,25.801,13.881,26.92,12.5,26.92z"/>
	<polygon style="fill:#F1F1F1;opacity:0.5;stroke:#F1F1F1;stroke-width:0.25;stroke-miterlimit:10;" points="11.25,33.15 10,30.98
		11.25,28.81 13.75,28.81 15,30.98 13.75,33.15 "/>
	<rect x="16.562" y="15.333" style="fill:#F1F1F1;opacity:0.5;" width="16.938" height="5"/>
	<rect x="16.562" y="21.92" style="fill:#F1F1F1;opacity:0.5;" width="16.938" height="5"/>
	<rect x="16.562" y="28.48" style="fill:#F1F1F1;opacity:0.5;" width="16.938" height="5"/>
</symbol>
<symbol id="arrow" viewBox="0 0 35 20">
	<line fill="none" stroke="#BABCBE" stroke-width="4" stroke-miterlimit="10" x1="32.6" y1="10.3" x2="4.4" y2="10.3"/>
	<polyline fill="none" stroke="#BABCBE" stroke-width="4" stroke-miterlimit="10" points="12.8,1.7 4.4,9.9 12.8,18.3 "/>
</symbol>
<symbol id="back" viewBox="0 0 480 480">
    <path d="M240,180c0,0,0-46.667,0-60c0-6.667-6.667-6.667-6.667-6.667l-140,120c-6.666,6.667,0,13.334,0,13.334l140,120c0,0,6.667,0,6.667-6.667s0-60,0-60h146.667V180H240z"/>
</symbol>
<symbol id="chevron-left" viewBox="0 0 48 48">
	<path class="base" d="M30.83 14.83L28 12 16 24l12 12 2.83-2.83L21.66 24z"/>
</symbol>
<symbol id="chevron" viewBox="0 0 35 35">
  <g class="frost-svg-chevron">
    <polygon points="13.5,17.6 27.8,32.2 25.1,35 8,17.6 8.2,17.4 10.7,14.8 25.3,0 28,2.8"/>
    <polygon points="10.7,14.8 8.2,17.4 10.7,14.8"/>
  </g>
</symbol>
<symbol id="close-circle" viewBox="0 0 30 30">
	<circle fill="#FFFFFF" cx="15" cy="15" r="15"/>
	<g class="frost-svg-close-circle">
		<rect x="13.5" y="7" transform="matrix(0.7071 0.7071 -0.7071 0.7071 15 -6.2132)" width="3" height="15.9"/>
		<rect x="7" y="13.5" transform="matrix(0.7071 0.7071 -0.7071 0.7071 15 -6.2132)" width="15.9" height="3"/>
		<path d="M15,2c7.2,0,13,5.8,13,13s-5.8,13-13,13S2,22.2,2,15S7.8,2,15,2 M15,0C6.7,0,0,6.7,0,15s6.7,15,15,15
		s15-6.7,15-15S23.3,0,15,0L15,0z"/>
	</g>
</symbol>
<symbol id="close" viewBox="0 0 48 48">
	<path class="base" d="M38 12.83L35.17 10 24 21.17 12.83 10 10 12.83 21.17 24 10 35.17 12.83 38 24 26.83 35.17 38 38 35.17 26.83 24z"/>
</symbol>
<symbol id="dialog-error" viewBox="0 0 80 80">
	<polygon fill="#ED5959" points="24.3,80 0,55.7 0,22.4 24.3,0 57.6,0 80,22.4 80,55.7 57.6,80"/>
	<circle fill="#FFFFFF" cx="40.1" cy="58.1" r="4.5"/>
	<path fill="#FFFFFF" d="M45.3,22.5c0-3.6-2.4-6.6-5.5-6.6s-5.3,3.4-5.3,7l3.3,24c0,1.3,0.9,2.4,2,2.4s2-1.1,2-2.4L45.3,22.5z"/>
</symbol>
<symbol id="double-chevron-left" viewBox="0 0 48 48">
  <path class="base" d="M 24.83,14.83 22,12 10,24 22,36 24.83,33.17 15.66,24 Z"/>
  <path class="base" d="m 38.797605,14.855422 -2.83,-2.83 -12,12 12,12 2.83,-2.83 -9.17,-9.17 z"/>
</symbol>
<symbol id="expand-collapse" viewBox="0 0 15 15">
<polygon fill="#676767" points="7.5,11.4 1.1,5 2.5,3.6 7.5,8.6 12.5,3.6 13.9,5 "/>
</symbol>
<symbol id="hide" viewBox="0 0 21.6 20">
<circle fill="#B3B3B3" cx="10.7" cy="10" r="5.1"/>
<path fill="#B3B3B3" d="M20.7,11.3c-3.6-4.1-7.3-6-10.8-5.7C4.6,6,1.2,11.1,1.2,11.2l-1-0.7c0.2-0.2,3.8-5.7,9.6-6.2
	c4-0.3,8,1.7,11.9,6.1L20.7,11.3z"/>
<g>
	
		<rect x="-0.5" y="8.9" transform="matrix(-0.6087 0.7934 -0.7934 -0.6087 26.2656 7.0071)" fill="#B3B3B3" width="23.8" height="2.2"/>
	<path fill="#FFFFFF" d="M17.8,0.4L19,1.3L5,19.6l-1.1-0.9L17.8,0.4 M17.7-0.6L17.3,0l-14,18.3l-0.4,0.6l0.6,0.4l1.1,0.9l0.6,0.4
		L5.5,20l14-18.3L20,1.1l-0.6-0.4l-1.1-0.9L17.7-0.6L17.7-0.6z"/>
</g>
</symbol>
<symbol id="home" viewBox="0 0 480 480">
  	<path d="M400.336,268.281c-2.736,2.921-7.379,3.081-10.299,0.346L240.668,129.156c-2.92-2.735-7.727-2.735-10.656,0L84.389,264.907   c-2.938,2.749-7.562,2.576-10.299-0.357l-14.92-16.003c-2.734-2.921-2.57-7.563,0.359-10.294l170.5-158.955   c2.938-2.735,7.736-2.735,10.67,0.018l174.211,162.669c2.924,2.735,3.094,7.378,0.344,10.312L400.336,268.281z"/>
  	<path d="M235.333,154.331L112.577,268.765v118.645c0,4.029,3.312,7.344,7.352,7.344h80.68V291.891c0-4.03,3.311-7.344,7.354-7.344   h58.771c4.047,0,7.344,3.313,7.344,7.344v102.862h80.943c4.047,0,7.344-3.314,7.344-7.344V272.954L235.333,154.331z"/>
  	<path d="M361.881,94.593c0-4.043-3.314-7.356-7.361-7.356h-44.076c-4.031,0-7.344,3.313-7.344,7.356v12.831l58.781,55.342V94.593z"/>
</symbol>
<symbol id="info" viewBox="0 0 80 80">
	<path fill="#BABCBE" d="M40,9.6c16.7,0,30.2,13.6,30.2,30.2S56.7,70.1,40,70.1S9.8,56.5,9.8,39.8S23.3,9.6,40,9.6 M40,4.8
		c-19.3,0-35,15.7-35,35s15.7,35,35,35s35-15.7,35-35S59.3,4.8,40,4.8L40,4.8z"/>
	<circle fill="#7C807F" cx="40" cy="24.5" r="6"/>
	<path fill="#7C807F" d="M40.6,61.5h-1.2c-1.7,0-3-1.3-3-3V37.1c0-1.6,1.3-3,3-3h1.2c1.6,0,3,1.3,3,3v21.4
		C43.6,60.2,42.2,61.5,40.6,61.5z"/>
</symbol>
<symbol id="infobar-create" viewBox="0 0 30 30">
<g>
	<polygon fill="#009EEF" points="25,13.3 25,16.7 16.7,16.7 16.7,25 13.3,25 13.3,16.7 5,16.7 5,13.3 13.3,13.3 13.3,5 16.7,5
		16.7,13.3 	"/>
</g>
</symbol>
<symbol id="infobar-find" viewBox="-374 286 30 30">
<g>
	<path fill="#009EEF" d="M-361.1,291.8c4,0,7.3,3.3,7.3,7.2s-3.3,7.2-7.3,7.2s-7.3-3.3-7.3-7.2S-365.1,291.8-361.1,291.8
		 M-361.1,290.6c-4.8,0-8.5,3.8-8.5,8.4c0,4.6,3.8,8.4,8.5,8.4s8.5-3.8,8.5-8.4C-352.5,294.4-356.4,290.6-361.1,290.6L-361.1,290.6z
		"/>
</g>
<line fill="none" stroke="#009EEF" stroke-width="2" stroke-miterlimit="10" x1="-354.7" y1="305.7" x2="-349.6" y2="310.8"/>
</symbol>
<symbol id="line" viewBox="0 0 35 20">
	<line fill="none" stroke="#BABCBE" stroke-width="5" stroke-miterlimit="10" x1="32.6" y1="10.3" x2="4.4" y2="10.3"/>
</symbol>
<symbol id="link" viewBox="0 0 30 30">
  <g class="frost-svg-link">
    <path d="M23,14v11H5V7h11V5H6C4.9,5,3,6.9,3,8v16c0,1.1,1.9,3,3,3h16c1.1,0,3-1.9,3-3V14H23z"/>
	<polygon points="27,3 27,10 25,10 25,6.5 17.3,14.2 15.9,12.8 23.7,5 20,5 20,3 "/>
  </g>
</symbol>
<symbol id="list-large" viewBox="0 0 10 10">
	<g class="view-size-svg">
		<rect x="0" y="0" width="10" height="4.5"/>
		<rect x="0" y="5.5" width="10" height="4.5"/>
	</g>
</symbol>
<symbol id="list-medium" viewBox="0 0 10 10">
	<g class="view-size-svg">
		<rect x="0" y="0" width="10" height="1.75"/>
		<rect x="0" y="2.75" width="10" height="1.75"/>
		<rect x="0" y="5.5" width="10" height="1.75"/>
		<rect x="0" y="8.25" width="10" height="1.75"/>
	</g>
</symbol>
<symbol id="list-small" viewBox="0 0 10 10">
  <g class="view-size-svg">
    <rect x="0" y="0" width="10" height="1"/>
    <rect x="0" y="2.25" width="10" height="1"/>
    <rect x="0" y="4.5" width="10" height="1"/>
    <rect x="0" y="6.75" width="10" height="1"/>
    <rect x="0" y="9" width="10" height="1"/>
  </g>
</symbol>
<symbol id="menu" viewBox="0 0 48 48">
	<path class="base" d="M6 36h36v-4H6v4zm0-10h36v-4H6v4zm0-14v4h36v-4H6z"/>
</symbol>
<symbol id="new-tab" viewBox="0 0 25 25">
<path fill="#FFFFFF" d="M21,11v10H3V4h10V2H3.5C2.3,2,1,2.4,1,3.5v17.2C1,21.8,2.3,23,3.5,23h17.2c1.1,0,2.4-1.2,2.4-2.3V11H21z"/>
<polygon fill="#FFFFFF" points="24,1 24,7 22,7 22,4.6 14.5,12.2 13,10.8 20.8,3 17,3 17,1 "/>
</symbol>
<symbol id="round-add" viewBox="0 0 30 30">
<rect x="14.5" y="7.5" fill="#009EEF" width="1" height="15"/>
<rect x="7.5" y="14.5" fill="#009EEF" width="15" height="1"/>
<path fill="#009EEF" d="M15,2.5c6.9,0,12.5,5.6,12.5,12.5S21.9,27.5,15,27.5S2.5,21.9,2.5,15S8.1,2.5,15,2.5 M15,1.5
	C7.5,1.5,1.5,7.5,1.5,15s6,13.5,13.5,13.5s13.5-6,13.5-13.5S22.5,1.5,15,1.5L15,1.5z"/>
</symbol>
<symbol id="round-remove" viewBox="0 15 30 30">
<rect x="7.5" y="29.5" fill="#E32C2C" width="15" height="1"/>
<g>
	<path fill="#E32C2C" d="M15,18.5c6.3,0,11.5,5.2,11.5,11.5S21.3,41.5,15,41.5S3.5,36.3,3.5,30S8.7,18.5,15,18.5 M15,17.5
		C8.1,17.5,2.5,23.1,2.5,30S8.1,42.5,15,42.5S27.5,36.9,27.5,30S21.9,17.5,15,17.5L15,17.5z"/>
</g>
</symbol>
<symbol id="search" viewBox="0 0 30 30">
	<path class="base" d="M12.7,7c2.9,0,5.3,2.4,5.3,5.3s-2.4,5.3-5.3,5.3s-5.3-2.4-5.3-5.3S9.8,7,12.7,7 M12.7,5
	c-4,0-7.3,3.3-7.3,7.3s3.3,7.3,7.3,7.3s7.3-3.3,7.3-7.3S16.8,5,12.7,5L12.7,5z"/>
	<line class="base" stroke-width="2" stroke-miterlimit="10" x1="18.9" y1="18.2" x2="24.5" y2="23.8"/>
</symbol>
<symbol id="shield" viewBox="0 0 25 25">
	<g opacity="0.8">
		<path fill="#595A5C" d="M12.5,8.1c0.8,0.9,2.2,2.1,4.4,2.3c0,1.6-0.5,5.3-4.4,7.1c-3.9-1.9-4.4-5.5-4.4-7.1
			C10.3,10.2,11.7,9,12.5,8.1 M12.5,6.4c0,0-1.5,3.1-5.4,3.1c0,0-0.9,6.5,5.4,9.2c6.3-2.7,5.4-9.2,5.4-9.2
			C14,9.5,12.5,6.4,12.5,6.4L12.5,6.4z"/>
		<path fill="#595A5C" d="M12.5,6.4c0,0,1.5,3.1,5.4,3.1c0,0,0.9,6.5-5.4,9.2V6.4z"/>
	</g>
</symbol>
<symbol id="show" viewBox="0 0 21.6 20">
<g>
	<path fill="#B3B3B3" d="M20.7,11.4c-3.6-4.1-7.3-6-10.8-5.7c-5.3,0.4-8.7,5.6-8.7,5.6l-1-0.7c0.2-0.2,3.8-5.7,9.6-6.2
		c4-0.3,8,1.7,11.9,6.1L20.7,11.4z"/>
	<path fill="#B3B3B3" d="M10.7,5c-2.8,0-5.1,2.3-5.1,5.1s2.3,5.1,5.1,5.1c2.8,0,5.1-2.3,5.1-5.1S13.5,5,10.7,5z M13,10.1
		c-0.8,0-1.4-0.7-1.4-1.5c0-0.8,0.6-1.5,1.4-1.5s1.4,0.7,1.4,1.5C14.4,9.5,13.8,10.1,13,10.1z"/>
</g>
</symbol>
<symbol id="sidebar-layer-normal" viewBox="0 0 40 40">
<g>
	<polygon style="fill:#FFFFFF;stroke:#859CA8;stroke-width:1.9282;stroke-miterlimit:10;" points="37.6,23.941 19.875,34.917 
		2.15,23.941 19.875,15.857 	"/>
	<polygon style="fill:#FFFFFF;stroke:#637582;stroke-width:1.9282;stroke-miterlimit:10;" points="37.6,18.156 19.875,29.133 
		2.15,18.156 19.875,10.072 	"/>
	<polygon style="fill:#FFFFFF;stroke:#33424F;stroke-width:1.9282;stroke-miterlimit:10;" points="37.6,12.372 19.875,23.348 
		2.15,12.372 19.875,4.288 	"/>
</g>
</symbol>
<symbol id="sidebar-layer-open" viewBox="0 0 40 40">
<g>
	<polygon style="fill:#859CA8;stroke:#FFFFFF;stroke-width:1.9282;stroke-miterlimit:10;" points="37.6,23.941 19.875,34.917 
		2.15,23.941 19.875,15.857 	"/>
	<polygon style="fill:#859CA8;stroke:#FFFFFF;stroke-width:1.9282;stroke-miterlimit:10;" points="37.6,18.156 19.875,29.133 
		2.15,18.156 19.875,10.072 	"/>
	<polygon style="fill:#859CA8;stroke:#FFFFFF;stroke-width:1.9282;stroke-miterlimit:10;" points="37.6,12.372 19.875,23.348 
		2.15,12.372 19.875,4.288 	"/>
</g>
</symbol>
<symbol id="sort-direction" viewBox="0 15 30 30">
<rect x="14.2" y="21.7" fill="#009EEF" width="1.4" height="17.4"/>
<rect x="11.1" y="19.2" transform="matrix(-0.7071 -0.7071 0.7071 -0.7071 3.1541 49.4962)" fill="#009EEF" width="1.4" height="9.8"/>
<rect x="17.2" y="19.3" transform="matrix(0.7071 -0.7071 0.7071 0.7071 -11.9147 19.746)" fill="#009EEF" width="1.4" height="9.8"/>
<path fill="#009EEF" d="M15,17.5c6.9,0,12.5,5.6,12.5,12.5S21.9,42.5,15,42.5S2.5,36.9,2.5,30S8.1,17.5,15,17.5 M15,16.5
	c-7.5,0-13.5,6-13.5,13.5s6,13.5,13.5,13.5s13.5-6,13.5-13.5S22.5,16.5,15,16.5L15,16.5z"/>
</symbol>
<symbol id="user" viewBox="0 0 25 25">
	<path class="base" d="M12.483,4.84h-0.046C9.925,4.865,7.9,6.924,7.9,9.454c0,0.384,0.046,0.756,0.133,1.111
		c-0.125,0.058-0.242,0.138-0.337,0.234c-0.204,0.205-0.333,0.484-0.333,0.793l0.129,0.96c0,0.618,0.379,1.127,1.004,1.127h0.05
		c0.208,1.315,0.536,2.691,1.648,3.263c0,0-0.415,1.434-0.407,1.505c-0.625,0.037-0.221,0.016-0.275,0.016
		c-3.563,0.109-6.245,2.611-6.245,2.611C2.15,22.102,1.7,23.618,1.538,24.934C0.654,24.691,0,23.881,0,22.921L0,2.042
		c0-1.148,0.938-2.088,2.083-2.088H12.5h10.417c1.146,0,2.083,0.94,2.083,2.088v20.879c0,0.96-0.654,1.77-1.538,2.013
		c-0.163-1.315-0.613-2.831-1.729-3.858c0,0-2.683-2.502-6.245-2.611c-0.054,0,0.35,0.021-0.275-0.016
		c0.008-0.071-0.407-1.505-0.407-1.505c1.112-0.572,1.44-1.948,1.648-3.263h0.05c0.625,0,1.004-0.509,1.004-1.127l0.129-0.96
		c0-0.309-0.129-0.589-0.333-0.793c-0.096-0.096-0.212-0.175-0.337-0.234C17.054,10.21,17.1,9.838,17.1,9.454
		c0-2.53-2.025-4.589-4.538-4.614h-0.046"/>
</symbol>
<symbol id="warning" viewBox="0 0 80 80">
	<path fill="none" stroke="#BABCBE" stroke-width="4" stroke-miterlimit="10" d="M435.1,599l30-45.1c1.9-2.9,6.2-2.9,8.2,0
		l30.2,45.1c2.2,3.3-0.2,7.6-4.1,7.6h-60.2C435.3,606.6,432.9,602.3,435.1,599z"/>
	<circle fill="#7C807F" cx="469.1" cy="596" r="3.3"/>
	<path fill="#7C807F" d="M473,569.8c0-2.7-1.8-4.8-4-4.8c-2.2,0-3.9,2.5-3.9,5.2l2.4,17.6c0,1,0.6,1.7,1.4,1.7
		c0.8,0,1.4-0.8,1.4-1.7L473,569.8z"/>
	<path fill="none" stroke="#BABCBE" stroke-width="4" stroke-miterlimit="10" d="M6.1,60l30-45.1c1.9-2.9,6.2-2.9,8.2,0L74.4,60
		c2.2,3.3-0.2,7.6-4.1,7.6H10.2C6.3,67.6,3.9,63.3,6.1,60z"/>
	<circle fill="#7C807F" cx="40.1" cy="57" r="3.3"/>
	<path fill="#7C807F" d="M44,30.8c0-2.7-1.8-4.8-4-4.8c-2.2,0-3.9,2.5-3.9,5.2l2.4,17.6c0,1,0.6,1.7,1.4,1.7s1.4-0.8,1.4-1.7
		L44,30.8z"/>
</symbol>
<symbol id="transition-arrow" viewBox="0 0 25 40">
  <g opacity="0.15">
    <polygon fill="#FFFFFF" points="21.4,16.8 25,20.1 3.6,40 0,36.7 "/>
    <polygon fill="#FFFFFF" points="25,19.9 21.4,23.2 0,3.3 3.6,0 "/>
  </g>
</symbol>
<symbol id="ring" viewBox="0 0 100 100">
	<rect x="0" y="0" width="100" height="100" fill="none" class="bk"/>
	<defs>
		<filter id="uil-ring-shadow" x="-100%" y="-100%" width="300%" height="300%">
			<feOffset result="offOut" in="SourceGraphic" dx="0" dy="0"/>
			<feGaussianBlur result="blurOut" in="offOut" stdDeviation="0"/>
			<feBlend in="SourceGraphic" in2="blurOut" mode="normal"/>
		</filter>
	</defs>
	<path d="M10,50c0,0,0,0.5,0.1,1.4c0,0.5,0.1,1,0.2,1.7c0,0.3,0.1,0.7,0.1,1.1c0.1,0.4,0.1,0.8,0.2,1.2c0.2,0.8,0.3,1.8,0.5,2.8 c0.3,1,0.6,2.1,0.9,3.2c0.3,1.1,0.9,2.3,1.4,3.5c0.5,1.2,1.2,2.4,1.8,3.7c0.3,0.6,0.8,1.2,1.2,1.9c0.4,0.6,0.8,1.3,1.3,1.9 c1,1.2,1.9,2.6,3.1,3.7c2.2,2.5,5,4.7,7.9,6.7c3,2,6.5,3.4,10.1,4.6c3.6,1.1,7.5,1.5,11.2,1.6c4-0.1,7.7-0.6,11.3-1.6 c3.6-1.2,7-2.6,10-4.6c3-2,5.8-4.2,7.9-6.7c1.2-1.2,2.1-2.5,3.1-3.7c0.5-0.6,0.9-1.3,1.3-1.9c0.4-0.6,0.8-1.3,1.2-1.9 c0.6-1.3,1.3-2.5,1.8-3.7c0.5-1.2,1-2.4,1.4-3.5c0.3-1.1,0.6-2.2,0.9-3.2c0.2-1,0.4-1.9,0.5-2.8c0.1-0.4,0.1-0.8,0.2-1.2 c0-0.4,0.1-0.7,0.1-1.1c0.1-0.7,0.1-1.2,0.2-1.7C90,50.5,90,50,90,50s0,0.5,0,1.4c0,0.5,0,1,0,1.7c0,0.3,0,0.7,0,1.1 c0,0.4-0.1,0.8-0.1,1.2c-0.1,0.9-0.2,1.8-0.4,2.8c-0.2,1-0.5,2.1-0.7,3.3c-0.3,1.2-0.8,2.4-1.2,3.7c-0.2,0.7-0.5,1.3-0.8,1.9 c-0.3,0.7-0.6,1.3-0.9,2c-0.3,0.7-0.7,1.3-1.1,2c-0.4,0.7-0.7,1.4-1.2,2c-1,1.3-1.9,2.7-3.1,4c-2.2,2.7-5,5-8.1,7.1 c-0.8,0.5-1.6,1-2.4,1.5c-0.8,0.5-1.7,0.9-2.6,1.3L66,87.7l-1.4,0.5c-0.9,0.3-1.8,0.7-2.8,1c-3.8,1.1-7.9,1.7-11.8,1.8L47,90.8 c-1,0-2-0.2-3-0.3l-1.5-0.2l-0.7-0.1L41.1,90c-1-0.3-1.9-0.5-2.9-0.7c-0.9-0.3-1.9-0.7-2.8-1L34,87.7l-1.3-0.6 c-0.9-0.4-1.8-0.8-2.6-1.3c-0.8-0.5-1.6-1-2.4-1.5c-3.1-2.1-5.9-4.5-8.1-7.1c-1.2-1.2-2.1-2.7-3.1-4c-0.5-0.6-0.8-1.4-1.2-2 c-0.4-0.7-0.8-1.3-1.1-2c-0.3-0.7-0.6-1.3-0.9-2c-0.3-0.7-0.6-1.3-0.8-1.9c-0.4-1.3-0.9-2.5-1.2-3.7c-0.3-1.2-0.5-2.3-0.7-3.3 c-0.2-1-0.3-2-0.4-2.8c-0.1-0.4-0.1-0.8-0.1-1.2c0-0.4,0-0.7,0-1.1c0-0.7,0-1.2,0-1.7C10,50.5,10,50,10,50z" fill="#009eef" filter="url(#uil-ring-shadow)">
		<animateTransform attributeName="transform" type="rotate" from="0 50 50" to="360 50 50" repeatCount="indefinite" dur="1s"/>
	</path>
</symbol>
<symbol id="ripple" viewBox="0 0 100 100">
	<rect x="0" y="0" width="100" height="100" fill="none" class="bk"/>
	<g>
		<animate attributeName="opacity" dur="2s" repeatCount="indefinite" begin="0s" keyTimes="0;0.33;1" values="1;1;0"/>
		<circle cx="50" cy="50" r="40" stroke="#009eef" fill="none" stroke-width="6" stroke-linecap="round">
			<animate attributeName="r" dur="2s" repeatCount="indefinite" begin="0s" keyTimes="0;0.33;1" values="0;22;44"/>
		</circle>
	</g>
	<g>
		<animate attributeName="opacity" dur="2s" repeatCount="indefinite" begin="1s" keyTimes="0;0.33;1" values="1;1;0"/>
		<circle cx="50" cy="50" r="40" stroke="#009eef" fill="none" stroke-width="6" stroke-linecap="round">
			<animate attributeName="r" dur="2s" repeatCount="indefinite" begin="1s" keyTimes="0;0.33;1" values="0;22;44"/>
		</circle>
	</g>
</symbol>
<symbol id="error" viewBox="0 0 30 30">
<g id="Layer_1" style="display:none;">
	<g style="display:inline;">
		<path style="fill:#009999;" d="M15,29.5C7.005,29.5,0.5,22.995,0.5,15S7.005,0.5,15,0.5S29.5,7.005,29.5,15S22.995,29.5,15,29.5z"/>
		<path style="fill:#FFFFFF;" d="M15,1c7.72,0,14,6.28,14,14s-6.28,14-14,14S1,22.72,1,15S7.28,1,15,1 M15,0C6.716,0,0,6.716,0,15
			s6.716,15,15,15s15-6.716,15-15S23.284,0,15,0L15,0z"/>
	</g>
	<g style="display:inline;">
		<circle style="fill:#FFFFFF;" cx="15.285" cy="20.259" r="1.253"/>
		<path style="fill:#FFFFFF;" d="M16.766,10.31c0-1.025-0.684-1.823-1.519-1.823c-0.835,0-1.481,0.949-1.481,1.975l0.911,6.684
			c0,0.38,0.228,0.646,0.532,0.646c0.304,0,0.532-0.304,0.532-0.646L16.766,10.31z"/>
	</g>
</g>
<g id="red_notification">
	<g>
		<g>
			<polygon style="fill:#E52C2C;" points="9.283,29.155 0.595,20.468 0.595,8.591 9.269,0.595 21.174,0.595 29.155,8.577 
				29.155,20.481 21.159,29.155 			"/>
			<path style="fill:#FFFFFF;" d="M20.927,1.19l7.633,7.633v11.426l-7.662,8.311H9.529L1.19,20.221V8.852L9.501,1.19H20.927
				 M21.42,0H9.037L0,8.33v12.383l9.037,9.037H21.42l8.33-9.037V8.33L21.42,0L21.42,0z"/>
		</g>
		<g>
			<circle style="fill:#FFFFFF;" cx="14.912" cy="21.606" r="1.673"/>
			<path style="fill:#FFFFFF;" d="M16.846,8.367c0-1.339-0.893-2.454-2.045-2.454S12.83,7.177,12.83,8.516l1.227,8.925
				c0,0.483,0.335,0.892,0.744,0.892s0.744-0.409,0.744-0.892L16.846,8.367z"/>
		</g>
	</g>
</g>
<g id="yellow" style="display:none;">
	<g style="display:inline;">
		<g>
			<path style="fill:#E2DC00;" d="M2,26c-0.333,0-0.582,0.017-0.666-0.136c-0.085-0.151-0.031-0.357,0.144-0.64L14.372,4.442
				C14.555,4.147,14.784,3.991,15,3.991s0.446,0.176,0.629,0.471l12.893,20.812c0.175,0.282,0.229,0.436,0.145,0.588
				C28.582,26.015,28.333,26,28,26H2z"/>
			<path style="fill:#FFFFFF;" d="M15,4.508c0.034,0.018,0.113,0.079,0.203,0.224l12.893,20.808c0.039,0.064,0.065,0.26,0.082,0.302
				C28.134,25.851,28.075,26,28,26H2c-0.075,0-0.134-0.149-0.178-0.157c0.017-0.042,0.042-0.167,0.082-0.231L14.797,4.768
				C14.887,4.623,14.966,4.526,15,4.508 M15,3.505c-0.382,0-0.764,0.234-1.053,0.701L1.053,25.157C0.474,26.092,0.9,27,2,27h26
				c1.1,0,1.526-0.908,0.947-1.843L16.053,4.277C15.764,3.81,15.382,3.505,15,3.505L15,3.505z"/>
		</g>
		<g>
			<circle style="fill:#A59D00;" cx="15.019" cy="22.023" r="1.253"/>
			<path style="fill:#A59D00;" d="M16.5,12.073c0-1.025-0.684-1.823-1.519-1.823S13.5,11.2,13.5,12.225l0.911,6.684
				c0,0.38,0.228,0.646,0.532,0.646c0.304,0,0.532-0.304,0.532-0.646L16.5,12.073z"/>
		</g>
	</g>
</g>
</symbol>
<symbol id="info" viewBox="0 0 30 30">
<g>
	<path style="fill:#009999;" d="M15,29.5C7.005,29.5,0.5,22.995,0.5,15S7.005,0.5,15,0.5S29.5,7.005,29.5,15S22.995,29.5,15,29.5z"/>
	<path style="fill:#FFFFFF;" d="M15,1c7.72,0,14,6.28,14,14s-6.28,14-14,14S1,22.72,1,15S7.28,1,15,1 M15,0C6.716,0,0,6.716,0,15
		s6.716,15,15,15s15-6.716,15-15S23.284,0,15,0L15,0z"/>
</g>
<g>
	<circle style="fill:#FFFFFF;" cx="15.285" cy="20.259" r="1.253"/>
	<path style="fill:#FFFFFF;" d="M16.766,10.31c0-1.025-0.684-1.823-1.519-1.823c-0.835,0-1.481,0.949-1.481,1.975l0.911,6.684
		c0,0.38,0.228,0.646,0.532,0.646c0.304,0,0.532-0.304,0.532-0.646L16.766,10.31z"/>
</g>
</symbol>
<symbol id="warning" viewBox="0 0 30 30">
<g id="Layer_1" style="display:none;">
	<g style="display:inline;">
		<path style="fill:#009999;" d="M15,29.5C7.005,29.5,0.5,22.995,0.5,15S7.005,0.5,15,0.5S29.5,7.005,29.5,15S22.995,29.5,15,29.5z"/>
		<path style="fill:#FFFFFF;" d="M15,1c7.72,0,14,6.28,14,14s-6.28,14-14,14S1,22.72,1,15S7.28,1,15,1 M15,0C6.716,0,0,6.716,0,15
			s6.716,15,15,15s15-6.716,15-15S23.284,0,15,0L15,0z"/>
	</g>
	<g style="display:inline;">
		<circle style="fill:#FFFFFF;" cx="15.285" cy="20.259" r="1.253"/>
		<path style="fill:#FFFFFF;" d="M16.766,10.31c0-1.025-0.684-1.823-1.519-1.823c-0.835,0-1.481,0.949-1.481,1.975l0.911,6.684
			c0,0.38,0.228,0.646,0.532,0.646c0.304,0,0.532-0.304,0.532-0.646L16.766,10.31z"/>
	</g>
</g>
<g id="red_notification" style="display:none;">
	<g style="display:inline;">
		<g>
			<polygon style="fill:#E52C2C;" points="9.283,29.155 0.595,20.468 0.595,8.591 9.269,0.595 21.174,0.595 29.155,8.577 
				29.155,20.481 21.159,29.155 			"/>
			<path style="fill:#FFFFFF;" d="M20.927,1.19l7.633,7.633v11.426l-7.662,8.311H9.529L1.19,20.221V8.852L9.501,1.19H20.927
				 M21.42,0H9.037L0,8.33v12.383l9.037,9.037H21.42l8.33-9.037V8.33L21.42,0L21.42,0z"/>
		</g>
		<g>
			<circle style="fill:#FFFFFF;" cx="14.912" cy="21.606" r="1.673"/>
			<path style="fill:#FFFFFF;" d="M16.846,8.367c0-1.339-0.893-2.454-2.045-2.454S12.83,7.177,12.83,8.516l1.227,8.925
				c0,0.483,0.335,0.892,0.744,0.892s0.744-0.409,0.744-0.892L16.846,8.367z"/>
		</g>
	</g>
</g>
<g id="yellow">
	<g>
		<g>
			<path style="fill:#E2DC00;" d="M2,26c-0.333,0-0.582,0.017-0.666-0.136c-0.085-0.151-0.031-0.357,0.144-0.64L14.372,4.442
				C14.555,4.147,14.784,3.991,15,3.991s0.446,0.176,0.629,0.471l12.893,20.812c0.175,0.282,0.229,0.436,0.145,0.588
				C28.582,26.015,28.333,26,28,26H2z"/>
			<path style="fill:#FFFFFF;" d="M15,4.508c0.034,0.018,0.113,0.079,0.203,0.224l12.893,20.808c0.039,0.064,0.065,0.26,0.082,0.302
				C28.134,25.851,28.075,26,28,26H2c-0.075,0-0.134-0.149-0.178-0.157c0.017-0.042,0.042-0.167,0.082-0.231L14.797,4.768
				C14.887,4.623,14.966,4.526,15,4.508 M15,3.505c-0.382,0-0.764,0.234-1.053,0.701L1.053,25.157C0.474,26.092,0.9,27,2,27h26
				c1.1,0,1.526-0.908,0.947-1.843L16.053,4.277C15.764,3.81,15.382,3.505,15,3.505L15,3.505z"/>
		</g>
		<g>
			<circle style="fill:#A59D00;" cx="15.019" cy="22.023" r="1.253"/>
			<path style="fill:#A59D00;" d="M16.5,12.073c0-1.025-0.684-1.823-1.519-1.823S13.5,11.2,13.5,12.225l0.911,6.684
				c0,0.38,0.228,0.646,0.532,0.646c0.304,0,0.532-0.304,0.532-0.646L16.5,12.073z"/>
		</g>
	</g>
</g>
</symbol>
</svg>