<!-- Generator: Adobe Illustrator 18.1.0, SVG Export Plug-In  -->
<svg version="1.1"
	 xmlns="http://www.w3.org/2000/svg" xmlns:xlink="http://www.w3.org/1999/xlink" xmlns:a="http://ns.adobe.com/AdobeSVGViewerExtensions/3.0/"
	 x="0px" y="0px" width="864px" height="710px" viewBox="0 0 864 710" enable-background="new 0 0 864 710" xml:space="preserve">
<defs>
</defs>
<g>
	<path fill="#BDE6FA" stroke="#0093C6" stroke-width="8" stroke-miterlimit="10" d="M4,65.9C4,65.9,4.7,4,67,4c72,0,225,0,225,0
		l36,50.5c0,0,360,0,468,0c64.3,0,64,1.8,64,83.5c0,18.9-1,568-1,568H4V65.9z"/>
	<linearGradient id="SVGID_1_" gradientUnits="userSpaceOnUse" x1="432" y1="706" x2="432" y2="157">
		<stop  offset="0" style="stop-color:#4492CF"/>
		<stop  offset="5.359336e-02" style="stop-color:#4B9DD7"/>
		<stop  offset="0.157" style="stop-color:#58B1E3"/>
		<stop  offset="0.2605" style="stop-color:#62C0ED"/>
		<stop  offset="0.3633" style="stop-color:#67CAF3"/>
		<stop  offset="0.4649" style="stop-color:#68CEF6"/>
	</linearGradient>
	<linearGradient id="SVGID_2_" gradientUnits="userSpaceOnUse" x1="0" y1="431.5" x2="864" y2="431.5">
		<stop  offset="0" style="stop-color:#1C75BC"/>
		<stop  offset="0.9494" style="stop-color:#00598A"/>
	</linearGradient>
	<path fill="url(#SVGID_1_)" stroke="url(#SVGID_2_)" stroke-width="8" stroke-miterlimit="10" d="M4,706L4,706c0,0,0-380.3,0-504
		c0-44,0-45,72-45s540,0,720,0c64.3,0,64,2.4,64,46.8c0,16.7-1,502.2-1,502.2H4z"/>
</g>
</svg>
