<?xml version="1.0" encoding="utf-8"?>
<!-- Generator: Adobe Illustrator 18.1.1, SVG Export Plug-In . SVG Version: 6.00 Build 0)  -->
<svg version="1.1" id="Layer_1" xmlns="http://www.w3.org/2000/svg" xmlns:xlink="http://www.w3.org/1999/xlink" x="0px" y="0px"
	 viewBox="0 0 25 25" enable-background="new 0 0 25 25" xml:space="preserve">
<path fill="none" stroke="#000000" stroke-miterlimit="10" d="M23,6.5"/>
<g>
	<path fill="#005582" d="M13,14.8c5.6,0,8.6,1.8,8.6,2.7s-3,2.7-8.6,2.7s-8.6-1.8-8.6-2.7S7.4,14.8,13,14.8 M13,13.8
		c-5.3,0-9.6,1.6-9.6,3.7s4.3,3.7,9.6,3.7s9.6-1.6,9.6-3.7S18.3,13.8,13,13.8L13,13.8z"/>
	<g>
		<ellipse fill="#FFFFFF" cx="12.9" cy="16.3" rx="9.8" ry="3.8"/>
	</g>
	<path fill="#005582" d="M13.1,7.8c6.3,0,10.3,1.9,10.3,3.1s-4,3.1-10.3,3.1S2.8,12.2,2.8,10.9S6.8,7.8,13.1,7.8 M13.1,6.8
		c-6.2,0-11.3,1.8-11.3,4.1s5.1,4.1,11.3,4.1s11.3-1.8,11.3-4.1S19.3,6.8,13.1,6.8L13.1,6.8z"/>
	<g>
		<ellipse fill="#FFFFFF" cx="13.1" cy="10.2" rx="10.9" ry="4"/>
	</g>
	<path fill="#005582" d="M13,3.8c4.8,0,7.4,1.2,7.8,1.7C20.4,6,17.8,7.2,13,7.2S5.6,6,5.2,5.5C5.6,5,8.2,3.8,13,3.8 M13,2.8
		C8.2,2.8,4.2,4,4.2,5.5S8.2,8.2,13,8.2s8.8-1.2,8.8-2.7S17.9,2.8,13,2.8L13,2.8z"/>
	<g>
		<ellipse fill="#FFFFFF" cx="13" cy="4.8" rx="8.2" ry="2.2"/>
	</g>
	<g>
		<path fill="#005582" d="M12,22.5c-2-1.2-3.3-5-3.3-10.1c0-5.1,1.6-8.8,3.3-10.1c0.4-0.3,0.8-0.5,1.2-0.5l0-0.9
			c-3,0-5.5,5.1-5.5,11.5c0,6.2,2.4,11.3,5.3,11.5l0-1C12.7,22.9,12,22.5,12,22.5z"/>
	</g>
	<path fill="#005582" d="M13,1.9c5.8,0,10.5,4.7,10.5,10.5S18.8,22.9,13,22.9S2.5,18.2,2.5,12.4S7.2,1.9,13,1.9 M13,0.9
		C6.6,0.9,1.5,6,1.5,12.4S6.6,23.9,13,23.9s11.5-5.1,11.5-11.5S19.3,0.9,13,0.9L13,0.9z"/>
</g>
<g>
	<g>
		<path fill="#FFFFFF" d="M21.9,5.7c-0.6,1.4-5.9,6.6-5.9,6.6s0.1-7.4,0.8-8.8C17.3,2,19,1.3,20.4,2S22.5,4.3,21.9,5.7z"/>
		<path fill="#333333" d="M19.3,1.7c0.4,0,0.8,0.1,1.1,0.2c1.4,0.6,2.1,2.3,1.5,3.7c-0.6,1.4-5.9,6.6-5.9,6.6s0.1-7.4,0.8-8.8
			C17.2,2.4,18.2,1.7,19.3,1.7 M19.3,0.7L19.3,0.7c-1.5,0-2.9,0.9-3.5,2.3c-0.7,1.5-0.8,7.9-0.8,9.2l0,2.4l1.7-1.7
			c0.9-0.9,5.5-5.4,6.2-6.9c0.8-1.9,0-4.2-2-5C20.3,0.8,19.8,0.7,19.3,0.7L19.3,0.7z"/>
	</g>
	<circle fill="#333333" cx="19.2" cy="4.5" r="1.4"/>
</g>
</svg>
